<?xml version="1.0" encoding="UTF-8" standalone="no"?>
<svg
   width="72.00"
   height="72.00"
   viewBox="0.00 0.00 1200.00 1200.00"
   version="1.1"
   id="svg7"
   sodipodi:docname="ScrowLite_Blue.svg"
   inkscape:version="1.2.1 (9c6d41e410, 2022-07-14)"
   xmlns:inkscape="http://www.inkscape.org/namespaces/inkscape"
   xmlns:sodipodi="http://sodipodi.sourceforge.net/DTD/sodipodi-0.dtd"
   xmlns="http://www.w3.org/2000/svg"
   xmlns:svg="http://www.w3.org/2000/svg">
  <defs
     id="defs11" />
  <sodipodi:namedview
     id="namedview9"
     pagecolor="#ffffff"
     bordercolor="#000000"
     borderopacity="0.25"
     inkscape:showpageshadow="2"
     inkscape:pageopacity="0.0"
     inkscape:pagecheckerboard="0"
     inkscape:deskcolor="#d1d1d1"
     showgrid="false"
     inkscape:zoom="12.180556"
     inkscape:cx="30.129989"
     inkscape:cy="36.944128"
     inkscape:window-width="1858"
     inkscape:window-height="1057"
     inkscape:window-x="-8"
     inkscape:window-y="-8"
     inkscape:window-maximized="1"
     inkscape:current-layer="Layer_6_Copy_2" />
  <g
     stroke-linecap="round"
     id="Layer_6_Copy_2">
    <path
       d="M600.91,64.00 L716.00,128.80 L771.37,159.97 L832.37,194.31 L957.47,264.74 L1018.47,299.08 L1069.47,327.79 L1069.18,499.48 L1069.07,569.48 L1068.90,671.17 L1068.78,741.17 L1068.56,873.79 L994.73,915.02 L928.76,951.87 L867.65,986.00 L835.33,1004.05 L779.89,1035.02 L774.21,1038.19 L736.82,1059.08 L718.78,1069.15 L675.70,1093.21 L616.96,1126.02 L599.09,1136.00 L555.93,1111.70 L472.66,1064.82 L465.68,1060.89 L411.66,1030.48 L404.68,1026.55 L269.12,950.23 L239.93,933.80 L208.12,915.89 L178.93,899.46 L130.53,872.21 L130.75,742.57 L130.87,672.57 L130.99,597.90 L131.11,527.90 L131.33,395.70 L131.35,381.77 L131.44,326.21 L144.06,319.17 L164.20,307.92 L225.31,273.79 L521.89,108.14 L583.00,74.00 L600.91,64.00 Z"
       fill="none"
       stroke="rgb(0, 0, 0)"
       stroke-width="64.00"
       stroke-opacity="1.00"
       stroke-linejoin="miter"
       id="path4"
       style="fill:#5cb9fe;fill-opacity:1;stroke:#5cb9fe;stroke-opacity:1" />
    <path
       d="M368.70,456.07 L433.67,419.50 L485.67,362.33 L524.67,283.17 L593.83,243.83 L665.17,241.67 L715.00,271.17 L784.17,275.33 L827.67,312.50 L737.33,349.00 L717.17,390.67 L743.50,526.00 L668.52,682.51 L608.01,740.53 L561.02,758.52 L535.53,823.50 L604.02,932.49 L669.00,945.00 L585.83,947.50 L503.76,824.77 L535.28,733.83 L594.21,713.38 L642.76,666.33 L711.50,520.50 L690.48,383.50 L720.99,326.48 L794.54,306.67 L776.19,291.32 L712.00,290.52 L658.50,267.52 L600.63,272.62 L546.13,304.38 L505.43,380.00 L447.79,428.61 L368.70,456.07 Z"
       fill="none"
       stroke="rgb(0, 0, 0)"
       stroke-width="7.80"
       stroke-opacity="1.00"
       stroke-linejoin="miter"
       id="path2"
       style="fill:#000000;fill-opacity:1;image-rendering:auto;stroke-width:9.46666667;stroke-dasharray:none" />
  </g>
</svg>
